<svg xmlns="http://www.w3.org/2000/svg" viewBox="-31 0 204 204"><rect x="-31" width="204" height="204" fill="#131519"/><path fill="#fff" d="M0,101.308594 C0,124.095052 0.68359375,139.498698 2.05078125,147.519531 C2.77994792,151.803385 3.69140625,155.358073 4.78515625,158.183594 C5.97005208,160.917969 7.29166667,163.789062 8.75,166.796875 C13.5807292,176.002604 21.328125,184.114583 31.9921875,191.132812 C42.4739583,198.424479 55.5533854,202.252604 71.2304688,202.617188 C87.0898438,202.252604 100.30599,198.424479 110.878906,191.132812 C121.360677,184.114583 128.925781,176.002604 133.574219,166.796875 C136.946615,161.966146 139.270833,155.540365 140.546875,147.519531 C141.731771,139.498698 142.324219,124.095052 142.324219,101.308594 C142.324219,78.1575521 141.731771,62.6627604 140.546875,54.8242188 C139.270833,46.9856771 136.946615,40.6510417 133.574219,35.8203125 C128.925781,26.6145833 121.360677,18.4114583 110.878906,11.2109375 C100.30599,3.91927083 87.0898438,0.182291667 71.2304688,0 C55.5533854,0.182291667 42.4739583,3.91927083 31.9921875,11.2109375 C21.328125,18.4114583 13.5807292,26.6145833 8.75,35.8203125 C5.7421875,40.6510417 3.50911458,46.9856771 2.05078125,54.8242188 C0.68359375,62.6627604 0,78.1575521 0,101.308594 Z M30.3515625,101.308594 C30.3515625,81.7122396 31.0807292,68.359375 32.5390625,61.25 C33.8151042,54.5052083 36.4127604,48.9908854 40.3320312,44.7070312 C43.5221354,40.6054688 47.7148438,37.1875 52.9101562,34.453125 C58.0143229,31.8098958 64.1210938,30.3971354 71.2304688,30.2148438 C78.4309896,30.3971354 84.6744792,31.8098958 89.9609375,34.453125 C94.9739583,37.1875 98.984375,40.6054688 101.992188,44.7070312 C105.911458,48.9908854 108.60026,54.5052083 110.058594,61.25 C111.425781,68.359375 112.109375,81.7122396 112.109375,101.308594 C112.109375,120.904948 111.425781,134.166667 110.058594,141.09375 C108.60026,148.020833 105.911458,153.626302 101.992188,157.910156 C98.984375,162.011719 94.9739583,165.338542 89.9609375,167.890625 C84.6744792,170.898438 78.4309896,172.402344 71.2304688,172.402344 C64.1210938,172.402344 58.0143229,170.898438 52.9101562,167.890625 C47.7148438,165.338542 43.5221354,162.011719 40.3320312,157.910156 C36.4127604,153.626302 33.8151042,148.020833 32.5390625,141.09375 C31.0807292,134.166667 30.3515625,120.904948 30.3515625,101.308594 Z"/></svg>
