<?xml version="1.0" encoding="UTF-8"?>
<svg width="1036px" height="204px" viewBox="0 0 1036 204" version="1.1" xmlns="http://www.w3.org/2000/svg" xmlns:xlink="http://www.w3.org/1999/xlink">
    <title>ORWELL Copy</title>
    <g id="Page-1" stroke="none" stroke-width="1" fill="none" fill-rule="evenodd">
        <g id="ORWELL-Copy" transform="translate(0.396075, 0.860938)" fill="#131519" fill-rule="nonzero">
            <path d="M0,101.308594 C0,124.095052 0.68359375,139.498698 2.05078125,147.519531 C2.77994792,151.803385 3.69140625,155.358073 4.78515625,158.183594 C5.97005208,160.917969 7.29166667,163.789062 8.75,166.796875 C13.5807292,176.002604 21.328125,184.114583 31.9921875,191.132812 C42.4739583,198.424479 55.5533854,202.252604 71.2304688,202.617188 C87.0898438,202.252604 100.30599,198.424479 110.878906,191.132812 C121.360677,184.114583 128.925781,176.002604 133.574219,166.796875 C136.946615,161.966146 139.270833,155.540365 140.546875,147.519531 C141.731771,139.498698 142.324219,124.095052 142.324219,101.308594 C142.324219,78.1575521 141.731771,62.6627604 140.546875,54.8242188 C139.270833,46.9856771 136.946615,40.6510417 133.574219,35.8203125 C128.925781,26.6145833 121.360677,18.4114583 110.878906,11.2109375 C100.30599,3.91927083 87.0898438,0.182291667 71.2304688,0 C55.5533854,0.182291667 42.4739583,3.91927083 31.9921875,11.2109375 C21.328125,18.4114583 13.5807292,26.6145833 8.75,35.8203125 C5.7421875,40.6510417 3.50911458,46.9856771 2.05078125,54.8242188 C0.68359375,62.6627604 0,78.1575521 0,101.308594 Z M30.3515625,101.308594 C30.3515625,81.7122396 31.0807292,68.359375 32.5390625,61.25 C33.8151042,54.5052083 36.4127604,48.9908854 40.3320312,44.7070312 C43.5221354,40.6054688 47.7148438,37.1875 52.9101562,34.453125 C58.0143229,31.8098958 64.1210938,30.3971354 71.2304688,30.2148438 C78.4309896,30.3971354 84.6744792,31.8098958 89.9609375,34.453125 C94.9739583,37.1875 98.984375,40.6054688 101.992188,44.7070312 C105.911458,48.9908854 108.60026,54.5052083 110.058594,61.25 C111.425781,68.359375 112.109375,81.7122396 112.109375,101.308594 C112.109375,120.904948 111.425781,134.166667 110.058594,141.09375 C108.60026,148.020833 105.911458,153.626302 101.992188,157.910156 C98.984375,162.011719 94.9739583,165.338542 89.9609375,167.890625 C84.6744792,170.898438 78.4309896,172.402344 71.2304688,172.402344 C64.1210938,172.402344 58.0143229,170.898438 52.9101562,167.890625 C47.7148438,165.338542 43.5221354,162.011719 40.3320312,157.910156 C36.4127604,153.626302 33.8151042,148.020833 32.5390625,141.09375 C31.0807292,134.166667 30.3515625,120.904948 30.3515625,101.308594 Z" id="Shape"></path>
            <path d="M211.8125,28.5742188 L259.117188,28.5742188 C268.778646,28.5742188 276.161458,30.625 281.265625,34.7265625 C287.736979,39.375 291.063802,46.8945312 291.246094,57.2851562 C291.246094,65.9440104 288.466146,73.2356771 282.90625,79.1601562 C277.255208,85.5403646 268.778646,88.8216146 257.476562,89.0039062 L211.8125,89.0039062 L211.8125,28.5742188 Z M181.597656,200.976562 L211.8125,200.976562 L211.8125,115.800781 L250.367188,115.800781 L291.519531,200.976562 L327.476562,200.976562 L281.265625,112.519531 C306.604167,102.766927 319.455729,84.3554688 319.820312,57.2851563 C319.273438,38.8736979 312.665365,24.7005208 299.996094,14.765625 C289.514323,6.015625 275.979167,1.640625 259.390625,1.640625 L181.597656,1.640625 L181.597656,200.976562 Z" id="Shape"></path>
            <polygon id="Path" points="383.15625 200.976562 408.3125 200.976562 446.457031 57.2851563 447.003906 57.2851563 485.011719 200.976562 510.304688 200.976562 560.070312 1.640625 528.214844 1.640625 496.769531 143.28125 496.222656 143.28125 457.667969 1.640625 435.792969 1.640625 397.101562 143.28125 396.554688 143.28125 365.246094 1.640625 333.390625 1.640625"></polygon>
            <polygon id="Path" points="588.269531 200.976562 715.554688 200.976562 715.554688 172.402344 618.484375 172.402344 618.484375 113.886719 701.335938 113.886719 701.335938 87.0898438 618.484375 87.0898438 618.484375 30.2148438 715.554688 30.2148438 715.554688 1.640625 588.269531 1.640625"></polygon>
            <polygon id="Path" points="747.992188 200.976562 875.277344 200.976562 875.277344 172.402344 778.207031 172.402344 778.207031 1.640625 747.992188 1.640625"></polygon>
            <polygon id="Path" points="907.714844 200.976562 1035 200.976562 1035 172.402344 937.929688 172.402344 937.929688 1.640625 907.714844 1.640625"></polygon>
        </g>
    </g>
</svg>