<?xml version="1.0" encoding="UTF-8"?>
<svg width="924px" height="924px" viewBox="0 0 924 924" version="1.1" xmlns="http://www.w3.org/2000/svg" xmlns:xlink="http://www.w3.org/1999/xlink">
    <title>Facebook-f_Logo-Blue-Logo.wine</title>
    <g id="Page-1" stroke="none" stroke-width="1" fill="none" fill-rule="evenodd">
        <g id="Facebook-f_Logo-Blue-Logo.wine" transform="translate(0.468750, 0.343750)" fill-rule="nonzero">
            <path d="M923.076923,461.5388 C923.076923,206.637671 716.439252,0 461.5388,0 C206.637671,0 0,206.637671 0,461.5388 C0,691.905593 168.777761,882.845994 389.423172,917.470176 L389.423172,594.952068 L272.235869,594.952068 L272.235869,461.5388 L389.423172,461.5388 L389.423172,359.856082 C389.423172,244.182527 458.327411,180.288731 563.752917,180.288731 C614.249474,180.288731 667.067696,189.302931 667.067696,189.302931 L667.067696,302.884689 L608.868538,302.884689 C551.534089,302.884689 533.654427,338.462147 533.654427,374.96178 L533.654427,461.5388 L661.659041,461.5388 L641.19607,594.952068 L533.653751,594.952068 L533.653751,917.470176 C754.299163,882.845994 923.076923,691.905593 923.076923,461.5388" id="Path" fill="#1877F2"></path>
            <path d="M641.19607,594.952068 L661.659041,461.5388 L533.653751,461.5388 L533.653751,374.961104 C533.653751,338.462147 551.534089,302.884689 608.868538,302.884689 L667.067696,302.884689 L667.067696,189.302931 C667.067696,189.302931 614.249474,180.288731 563.752917,180.288731 C458.327411,180.288731 389.423172,244.182527 389.423172,359.856082 L389.423172,461.5388 L272.235869,461.5388 L272.235869,594.952068 L389.423172,594.952068 L389.423172,917.470176 C413.279675,921.208705 437.391143,923.076939 461.5388,923.076939 C486.072459,923.076939 510.155849,921.15685 533.653751,917.470176 L533.653751,594.952068 L641.19607,594.952068" id="Path" fill="#FFFFFF"></path>
        </g>
    </g>
</svg>