<?xml version="1.0" encoding="UTF-8"?>
<svg width="924px" height="1045px" viewBox="0 0 924 1045" version="1.1" xmlns="http://www.w3.org/2000/svg" xmlns:xlink="http://www.w3.org/1999/xlink">
    <title>TikTok-Icon-Logo.wine</title>
    <g id="Page-1" stroke="none" stroke-width="1" fill="none" fill-rule="evenodd">
        <g id="TikTok-Icon-Logo.wine" transform="translate(0.437500, 0.353129)" fill-rule="nonzero">
            <path d="M359.713027,411.022378 L359.713027,370.353497 C345.595499,368.11667 331.336207,366.891262 317.044037,366.685913 C178.676504,366.393281 56.1698341,456.058163 14.6242388,588.042016 C-26.9280235,720.022535 22.1179802,863.690356 135.697497,942.717992 C50.6195319,851.663035 26.9949124,719.105818 75.38088,604.266232 C123.763514,489.426647 235.12291,413.739192 359.713027,411.022378 Z" id="Path" fill="#25F4EE"></path>
            <path d="M367.380111,871.714127 C444.74099,871.610788 508.334452,810.660803 511.721303,733.373261 L511.721303,43.6690442 L637.728163,43.6690442 C635.156099,29.2576703 633.928535,14.6384967 634.061297,0 L461.718581,0 L461.718581,689.037514 C458.851758,766.71841 395.111621,828.25176 317.377389,828.378434 C294.147548,828.181165 271.296843,822.468488 250.707092,811.71086 C277.772498,849.210082 321.134178,871.510374 367.380111,871.714127 Z M873.07431,277.681785 L873.07431,239.346364 C826.700969,239.36224 781.356436,225.677701 742.73388,200.010889 C776.591729,239.370289 822.344804,266.634909 873.07431,277.681785 Z" id="Shape" fill="#25F4EE"></path>
            <path d="M742.73388,200.010889 C704.688575,156.686251 683.715074,100.993904 683.730668,43.3356927 L637.728163,43.3356927 C649.736043,107.76204 687.706679,164.416641 742.73388,200.010889 L742.73388,200.010889 Z M317.044037,539.029347 C250.653756,539.369366 193.017285,584.851842 177.24976,649.34202 C161.482234,713.832198 191.630543,780.775842 250.373741,811.71086 C218.544803,767.767527 214.048571,709.686427 238.735252,661.36805 C263.421934,613.049673 313.120586,582.657662 367.380111,582.698391 C381.847565,582.878401 396.215014,585.12519 410.049101,589.365421 L410.049101,414.022541 C395.922568,411.906045 381.663943,410.79209 367.380111,410.689026 L359.713027,410.689026 L359.713027,544.029619 C345.808013,540.301229 331.434316,538.616811 317.044037,539.029347 L317.044037,539.029347 Z" id="Shape" fill="#FE2C55"></path>
            <path d="M873.07431,277.681785 L873.07431,411.022378 C787.226522,410.856121 703.607203,383.682758 634.061297,333.351482 L634.061297,683.703891 C633.69461,858.526742 491.866889,1000.05445 317.044037,1000.05445 C252.11918,1000.1703 188.758048,980.137001 135.700831,942.717992 C224.245652,1037.94984 362.046487,1069.29822 483.07641,1021.74229 C604.102999,974.183039 683.700666,857.410015 683.730668,727.372935 L683.730668,378.020581 C753.509786,428.022182 837.232622,454.841474 923.077032,454.691422 L923.077032,283.015409 C906.27038,282.961989 889.514088,281.174651 873.07431,277.681785 L873.07431,277.681785 Z" id="Path" fill="#FE2C55"></path>
            <path d="M634.061297,683.703891 L634.061297,333.351482 C703.819902,383.393868 787.556248,410.217488 873.407661,410.022323 L873.407661,276.68173 C822.687889,265.971569 776.824929,239.062179 742.73388,200.010889 C687.706679,164.416641 649.736043,107.76204 637.728163,43.3356927 L511.721303,43.3356927 L511.721303,733.373261 C509.201166,794.936613 467.965587,848.146177 408.982376,865.953813 C349.995831,883.761449 286.209025,862.260279 250.040389,812.377563 C191.297191,781.442545 161.148883,714.4989 176.916408,650.008723 C192.683933,585.518545 250.320405,540.036069 316.710686,539.69605 C331.182718,539.825513 345.557951,542.071643 359.379676,546.36308 L359.379676,413.022487 C234.089521,415.145936 121.890079,491.093404 73.3674371,606.623027 C24.8481288,722.152651 49.1661195,855.436574 135.367479,946.384859 C188.948094,982.570372 252.401296,1001.31526 317.044037,1000.05445 C491.866889,1000.05445 633.69461,858.526742 634.061297,683.703891 Z" id="Path" fill="#000000"></path>
        </g>
    </g>
</svg>