<?xml version="1.0" encoding="UTF-8"?>
<svg width="133px" height="133px" viewBox="0 0 133 133" version="1.1" xmlns="http://www.w3.org/2000/svg" xmlns:xlink="http://www.w3.org/1999/xlink">
    <title>Group</title>
    <g id="Page-1" stroke="none" stroke-width="1" fill="none" fill-rule="evenodd">
        <g id="Group" transform="translate(0.561500, 0.437500)" fill-rule="nonzero">
            <path d="M112.033,131.776 L19.743,131.776 C8.839,131.776 0,122.937 0,112.033 L0,19.743 C0,8.839 8.839,0 19.743,0 L112.033,0 C122.937,0 131.776,8.839 131.776,19.743 L131.776,112.033 C131.776,122.937 122.936,131.776 112.033,131.776 Z" id="Path" fill="#000000"></path>
            <g id="layer1_00000091012350546724639160000011044474765598458252_" transform="translate(24.177088, 25.614403)" fill="#FFFFFF">
                <path d="M0.211,0 L33.619,44.67 L0,80.988 L7.566,80.988 L36.999,49.191 L60.78,80.988 L86.528,80.988 L51.24,33.806 L82.532,0 L74.966,0 L47.859,29.285 L25.957,0 L0.211,0 L0.211,0 Z M11.338,5.573 L23.167,5.573 L75.401,75.414 L63.572,75.414 L11.338,5.573 Z" id="path1009_00000044167054819785028960000015767849619735985560_"></path>
            </g>
        </g>
    </g>
</svg>