<?xml version="1.0" encoding="UTF-8"?>
<svg width="924px" height="651px" viewBox="0 0 924 651" version="1.1" xmlns="http://www.w3.org/2000/svg" xmlns:xlink="http://www.w3.org/1999/xlink">
    <title>YouTube-Icon-Full-Color-Logo.wine</title>
    <g id="Page-1" stroke="none" stroke-width="1" fill="none" fill-rule="evenodd">
        <g id="YouTube-Icon-Full-Color-Logo.wine" transform="translate(0.437609, 0.000000)" fill-rule="nonzero">
            <path d="M903.786741,101.55274 C893.17006,61.579895 861.894318,30.0996076 822.17322,19.4160563 C750.19299,0 461.536495,0 461.536495,0 C461.536495,0 172.883933,0 100.899769,19.4160563 C61.1786718,30.0996076 29.8950624,61.579895 19.2862488,101.55274 C0,174.004998 0,325.175674 0,325.175674 C0,325.175674 0,476.338484 19.2862488,548.798609 C29.8950624,588.775387 61.1786718,620.247808 100.895836,630.94316 C172.879999,650.351349 461.532561,650.351349 461.532561,650.351349 C461.532561,650.351349 750.189057,650.351349 822.169287,630.94316 C861.890384,620.251741 893.166126,588.775387 903.782807,548.802542 C923.07299,476.342418 923.07299,325.179608 923.07299,325.179608 C923.07299,325.179608 923.07299,174.008931 903.782807,101.556674" id="Path" fill="#FF0000"></path>
            <polygon id="Path" fill="#FFFFFF" points="367.131034 462.42548 608.388122 325.183542 367.131034 187.925869"></polygon>
        </g>
    </g>
</svg>